<?xml version="1.0" encoding="iso-8859-1"?>
<!-- Generator: Adobe Illustrator 19.0.0, SVG Export Plug-In . SVG Version: 6.00 Build 0)  -->
<svg version="1.1" id="Capa_1" xmlns="http://www.w3.org/2000/svg" xmlns:xlink="http://www.w3.org/1999/xlink" x="0px" y="0px"
	 viewBox="0 0 55 55" style="enable-background:new 0 0 55 55;" xml:space="preserve">
<g>
	<circle cx="13" cy="18.5" r="2"/>
	<circle cx="23" cy="18.5" r="2"/>
	<path d="M52.15,26.5H50V18c0-1.379-1.121-2.5-2.5-2.5S45,16.621,45,18v8.5h-3V18c0-1.379-1.121-2.5-2.5-2.5S37,16.621,37,18v8.5h-1
		v-26H0v36h32v3.764c0,3.438,2.798,6.236,6.236,6.236H40v4h1.816c-0.414,1.161-1.514,2-2.816,2h-5c-1.654,0-3-1.346-3-3v-1
		c0-3.859-3.141-7-7-7h-1c-3.859,0-7,3.141-7,7c0,0.553,0.447,1,1,1s1-0.447,1-1c0-2.757,2.243-5,5-5h1c2.757,0,5,2.243,5,5v1
		c0,2.757,2.243,5,5,5h5c2.414,0,4.434-1.721,4.899-4H47v-4h1.764c3.438,0,6.236-2.798,6.236-6.236V29.35
		C55,27.778,53.722,26.5,52.15,26.5z M18,32.5c-7.72,0-14-6.28-14-14s6.28-14,14-14s14,6.28,14,14S25.72,32.5,18,32.5z M45,48.5h-3
		v-2h3V48.5z M53,31.5H34v-2.117c0-0.486,0.396-0.883,0.883-0.883H36h1v2h5v-2h3v2h5v-2h2.15c0.469,0,0.85,0.381,0.85,0.85V31.5z"/>
	<path d="M19,6.551V8.5c0,0.553-0.447,1-1,1s-1-0.447-1-1V6.551C10.85,7.062,6,12.22,6,18.5s4.85,11.438,11,11.949V28.5
		c0-0.553,0.447-1,1-1s1,0.447,1,1v1.949c6.15-0.511,11-5.67,11-11.949S25.15,7.062,19,6.551z M13,22.5c-2.206,0-4-1.794-4-4
		s1.794-4,4-4s4,1.794,4,4S15.206,22.5,13,22.5z M23,22.5c-2.206,0-4-1.794-4-4s1.794-4,4-4s4,1.794,4,4S25.206,22.5,23,22.5z"/>
</g>
<g>
</g>
<g>
</g>
<g>
</g>
<g>
</g>
<g>
</g>
<g>
</g>
<g>
</g>
<g>
</g>
<g>
</g>
<g>
</g>
<g>
</g>
<g>
</g>
<g>
</g>
<g>
</g>
<g>
</g>
</svg>
